<?xml version="1.0" encoding="UTF-8" standalone="no"?>
<svg
   version="1.1"
   width="1184.3505pt"
   height="417.79117pt"
   viewBox="0 0 1184.3505 417.79117"
   id="svg144"
   sodipodi:docname="RoomMatch.svg"
   inkscape:version="1.2.1 (9c6d41e4, 2022-07-14)"
   xmlns:inkscape="http://www.inkscape.org/namespaces/inkscape"
   xmlns:sodipodi="http://sodipodi.sourceforge.net/DTD/sodipodi-0.dtd"
   xmlns:xlink="http://www.w3.org/1999/xlink"
   xmlns="http://www.w3.org/2000/svg"
   xmlns:svg="http://www.w3.org/2000/svg">
  <defs
     id="defs148" />
  <sodipodi:namedview
     id="namedview146"
     pagecolor="#ffffff"
     bordercolor="#000000"
     borderopacity="0.25"
     inkscape:showpageshadow="2"
     inkscape:pageopacity="0.0"
     inkscape:pagecheckerboard="0"
     inkscape:deskcolor="#d1d1d1"
     inkscape:document-units="pt"
     showgrid="false"
     inkscape:zoom="0.42317314"
     inkscape:cx="1065.7576"
     inkscape:cy="438.35485"
     inkscape:window-width="1440"
     inkscape:window-height="813"
     inkscape:window-x="0"
     inkscape:window-y="25"
     inkscape:window-maximized="0"
     inkscape:current-layer="svg144" />
  <g
     id="g474"
     transform="translate(-8.39611,-389.83092)">
    <g
       enable-background="new"
       id="g142">
      <path
         d="M 0,0 H 1200 V 1200 H 0 Z"
         fill="#ffffff"
         id="path92" />
      <path
         transform="scale(1200)"
         d="M 0,0 H 1 V 1 H 0 Z"
         fill="#ffffff"
         id="path94" />
      <path
         d="m 99.975,59.486 c 0,1.768 -1.429,3.198 -3.196,3.198 h -38 c -0.901,0 -1.714,-0.371 -2.296,-0.975 L 31.403,35.808 5.478,61.748 c -0.58,0.58 -1.378,0.937 -2.261,0.937 -1.766,0 -3.195,-1.431 -3.195,-3.198 0,-0.883 0.358,-1.682 0.935,-2.259 L 29.18,28.989 c 0.579,-0.577 1.379,-0.937 2.261,-0.937 0.901,0 1.715,0.373 2.295,0.973 l 7.348,7.592 h 19.7 v -8.896 h 8.479 v 8.896 H 79.55 c 0.957,0 1.818,0.423 2.405,1.089 l 17.229,19.673 c 0.493,0.564 0.791,1.304 0.791,2.107 z M 22.589,58.375 h 6.974 v -6.978 h -6.974 z m 10.515,0 h 6.973 v -6.978 h -6.973 z m -10.515,9.986 h 6.974 v -6.978 h -6.974 z m 10.515,0.036 h 6.973 v -6.979 h -6.973 z"
         fill="#080606"
         id="path96"
         transform="matrix(8.420487,0,0,8.420487,172.018,156.4066)" />
      <path
         transform="translate(6.901932,620.84988)"
         d="M 1185.8446,0 H 1.494178 L 65.62322,93.38611 1.494178,186.77222 H 1185.8446 l -64.129,-93.38611 z"
         fill="#080606"
         id="path98" />
      <symbol
         id="font_0_1">
        <path
           d="m 0.26900003,0.38450004 c 0.0233333,0 0.0431667,0.0035 0.0595,0.0105 0.0163333,0.007333 0.0295,0.017 0.0395,0.029 0.0103333,0.012 0.0176667,0.026 0.022,0.042 0.004667,0.016 0.007,0.0328333 0.007,0.0505 -10e-9,0.0136667 -0.002,0.026 -0.006,0.037 -0.004,0.0113334 -0.0103333,0.0208334 -0.019,0.0285 -0.008333,0.008 -0.019,0.0141667 -0.032,0.0185001 -0.0126667,0.004333 -0.0276667,0.0065 -0.045,0.0065 H 0.237 L 0.2095,0.38450004 H 0.269 M 0.31,0.7285 c 0.0446667,9e-8 0.0826667,-0.004833 0.11399999,-0.0144999 C 0.4556667,0.7046667 0.4815,0.69166669 0.5015,0.675 0.5215,0.6583334 0.536,0.6385001 0.545,0.6155001 c 0.009333,-0.0226667 0.014,-0.0473333 0.014,-0.074 0,-0.0266667 -0.003667,-0.0521667 -0.011,-0.0765 -0.007,-0.024 -0.0173333,-0.0461667 -0.031,-0.0665 -0.0136666,-0.02 -0.0303333,-0.0378334 -0.05,-0.0535 -0.0196667,-0.0153333 -0.0421666,-0.028 -0.0675,-0.038 0.01,-0.005667 0.0191667,-0.0126666 0.0275,-0.021 0.008333,-0.008 0.0153333,-0.0178333 0.021,-0.0295 L 0.554,0 H 0.40700004 c -0.0136667,0 -0.0251667,0.00266667 -0.0345,0.008 -0.009,0.00566667 -0.0155,0.01333334 -0.0195,0.023 l -0.079,0.21550002 c -0.004,0.009 -0.009,0.0155 -0.015,0.0195 -0.006,0.004 -0.015,0.006 -0.027,0.006 H 0.1955 L 0.162,0 H 0 l 0.089,0.7285 z"
           id="path100" />
      </symbol>
      <symbol
         id="font_0_2">
        <path
           d="m 0.22000002,0.11500001 c 0.0173333,0 0.0328333,0.005167 0.0465,0.0155 0.0136667,0.0106667 0.0251667,0.025 0.0345,0.043 0.009667,0.0183333 0.017,0.0395 0.022,0.0635 0.005333,0.0243333 0.008,0.0501667 0.008,0.0775 0,0.0376667 -0.005167,0.0645 -0.0155,0.0805 -0.01,0.0163333 -0.0265,0.0245 -0.0495,0.0245 -0.0173333,0 -0.0328333,-0.005333 -0.0465,-0.016 -0.0136666,-0.0103333 -0.0253333,-0.0245 -0.035,-0.0425 -0.009333,-0.018 -0.0166667,-0.0391666 -0.022,-0.0635 -0.005,-0.0243333 -0.0075,-0.0501666 -0.0075,-0.0775 0,-0.037 0.005,-0.0638333 0.015,-0.0805 0.0103333,-0.0163333 0.027,-0.0245 0.05,-0.0245 M 0.20600002,0 C 0.177,0 0.14983334,0.00483333 0.12450001,0.0145 0.0995,0.02416667 0.07766667,0.03816667 0.059,0.0565 0.04066667,0.07516667 0.02616667,0.09800001 0.0155,0.125 0.00516667,0.15233334 0,0.18366666 0,0.21900001 0,0.265 0.0075,0.30716668 0.0225,0.3455 c 0.01533334,0.0386666 0.03583334,0.072 0.06150001,0.10000003 0.02566666,0.028 0.05533333,0.0498333 0.089,0.0655 0.034,0.0156666 0.0696667,0.0235 0.10700003,0.0235 0.029,0 0.056,-0.004833 0.081,-0.0145 0.025,-0.009667 0.0466667,-0.0238334 0.065,-0.0425 0.0186667,-0.0183333 0.0333333,-0.0411667 0.044,-0.0685 0.0106667,-0.027 0.016,-0.0581667 0.016,-0.0935 0,-0.0453333 -0.007667,-0.0873333 -0.0230001,-0.126 -0.015,-0.0383333 -0.0353333,-0.0716667 -0.061,-0.1 C 0.37633334,0.0615 0.3465,0.0395 0.3125,0.0235 0.27883337,0.00783333 0.24333336,0 0.20600002,0 Z"
           id="path103" />
      </symbol>
      <symbol
         id="font_0_3">
        <path
           d="m 0,0 0.063,0.51850005 h 0.08 c 0.016,0 0.0285,-0.003833 0.0375,-0.0115 0.009,-0.007333 0.0135,-0.0194999 0.0135,-0.0365 v -0.0305 c 0.022,0.0293334 0.0451667,0.051 0.0695,0.065 0.0243333,0.0143334 0.0498334,0.0215001 0.0765,0.0215001 0.0293334,0 0.0536667,-0.0095 0.073,-0.0285 0.0193333,-0.019 0.0316667,-0.0466667 0.037,-0.083 0.023,0.0383334 0.0481667,0.0665 0.0755,0.0845 0.0273333,0.018 0.0581667,0.027 0.0925001,0.027 0.0216667,0 0.0411667,-0.004333 0.0584999,-0.013 0.0173334,-0.008667 0.0316667,-0.0213334 0.043,-0.038 0.0113334,-0.0166667 0.0191667,-0.0373333 0.0235001,-0.062 0.004667,-0.0243333 0.005,-0.0523333 9.9994e-4,-0.084 L 0.70500007,0 h -0.153 L 0.591,0.32950003 c 0.001667,0.014 0.002167,0.0258333 0.0015,0.0355 -3.3337e-4,0.009667 -0.001833,0.0173334 -0.0045,0.023 -0.002333,0.005667 -0.005833,0.009667 -0.0104999,0.012 -0.004667,0.002667 -0.0101667,0.004 -0.0165,0.004 -0.0103333,0 -0.0203334,-0.002833 -0.0300001,-0.0085 -0.009333,-0.005333 -0.0183333,-0.0133333 -0.027,-0.024 -0.008333,-0.0103333 -0.0159999,-0.023 -0.0229999,-0.038 -0.007,-0.0146667 -0.0131667,-0.0311667 -0.0185,-0.0495 L 0.42900003,0 h -0.153 l 0.039,0.32950003 c 0.001667,0.014 0.002167,0.0258333 0.0015,0.0355 -3.3332e-4,0.009667 -0.001833,0.0173334 -0.0045,0.023 -0.002333,0.005667 -0.005833,0.009667 -0.0105,0.012 -0.004667,0.002667 -0.0101667,0.004 -0.0165,0.004 -0.0103333,0 -0.0203334,-0.002833 -0.03,-0.0085 -0.009667,-0.005667 -0.0188334,-0.0138333 -0.0275,-0.0245 -0.008333,-0.0106667 -0.016,-0.0236667 -0.023,-0.039 C 0.1975,0.317 0.19133334,0.3001667 0.186,0.2815 L 0.15200001,0 Z"
           id="path106" />
      </symbol>
      <symbol
         id="font_0_4">
        <path
           d="M 0.851,0.7285 0.76100006,0 h -0.143 L 0.669,0.42400003 c 0.001333,0.009 0.003,0.0188333 0.005,0.0295 0.002,0.011 0.004333,0.0223333 0.007,0.034 L 0.46200005,0.1115 c -0.007,-0.011 -0.0158334,-0.01933333 -0.0265,-0.02499999 C 0.4251667,0.08083334 0.4136667,0.078 0.40100003,0.078 h -0.022 c -0.0126667,0 -0.0236667,0.0028333 -0.033,0.0085 -0.009333,0.0056667 -0.016,0.014 -0.02,0.02499999 L 0.198,0.48900003 c -3.3334e-4,-0.0113333 -8.3332e-4,-0.0223333 -0.0015,-0.033 -6.6667e-4,-0.0106667 -0.0015,-0.0205 -0.0025,-0.0295 L 0.14400001,0 H 0 l 0.09,0.7285 h 0.124 c 0.007,9e-8 0.0128333,-3.3334e-4 0.0175,-0.001 C 0.2365,0.72683337 0.240833,0.725667 0.2445,0.724 0.248167,0.722333 0.2515,0.719833 0.2545,0.7165 0.257833,0.713167 0.261333,0.708833 0.265,0.7035 L 0.39300005,0.32000003 c 0.003667,-0.0103334 0.007,-0.021 0.01,-0.032 0.003,-0.0106667 0.005833,-0.0215 0.0085,-0.0325 0.005,0.011 0.0103333,0.0218333 0.016,0.0325 0.005667,0.011 0.0118333,0.0216666 0.0185,0.032 L 0.669,0.70350006 c 0.005,0.005333 0.0095,0.009667 0.0135,0.013 0.004,0.003333 0.008,0.005833 0.012,0.0075 0.004,0.001667 0.0085,0.002833 0.0135,0.0035 0.005,6.6666e-4 0.0110001,0.001 0.018,0.001 z"
           id="path109" />
      </symbol>
      <symbol
         id="font_0_5">
        <path
           d="M 0.325,0.428 C 0.2996667,0.428 0.2765,0.422333 0.2555,0.411 0.2348333,0.3996667 0.217,0.3841667 0.202,0.3645 0.187,0.3451667 0.1753333,0.3225 0.167,0.2965 0.159,0.2708333 0.155,0.2433333 0.155,0.214 0.155,0.1973333 0.156333,0.1831667 0.159,0.1715 0.161667,0.1598333 0.165167,0.1503333 0.1695,0.143 0.174167,0.136 0.1795,0.1308333 0.1855,0.1275 0.191833,0.124167 0.1986667,0.1225 0.206,0.1225 c 0.0113333,0 0.0223333,0.004167 0.033,0.0125 0.0106667,0.008667 0.0206666,0.0203333 0.03,0.035 0.009667,0.0146667 0.0185,0.0318333 0.0265,0.0515 0.008,0.0196667 0.0148334,0.0406667 0.0205,0.063 L 0.3345,0.428 H 0.325 M 0.301,0.09450001 C 0.28,0.06516668 0.25633333,0.042 0.23000002,0.025 0.20400001,0.00833333 0.17533334,0 0.14400001,0 0.12533336,0 0.10733334,0.00366667 0.09,0.011 0.07266667,0.01866667 0.05733334,0.03 0.044,0.045 0.03066667,0.06033334 0.02,0.07966668 0.012,0.10300001 0.004,0.12666668 0,0.15450001 0,0.18650002 0,0.2335 0.0085,0.278 0.0255,0.32 0.04283333,0.3623333 0.06683334,0.3993333 0.09750001,0.431 0.1285,0.4626667 0.16516668,0.4878334 0.20750001,0.5065 0.24983331,0.5251667 0.29633331,0.5345001 0.347,0.5345001 c 0.0246667,0 0.0496667,-0.001667 0.075,-0.005 0.0253333,-0.003333 0.0503333,-0.009333 0.075,-0.018 L 0.43400003,0.008 H 0.351 C 0.341333,0.008 0.3331667,0.00916667 0.3265,0.0115 0.320167,0.0141667 0.315,0.0176667 0.311,0.022 0.307333,0.0263333 0.304667,0.0315 0.303,0.0375 0.301667,0.0435 0.301,0.05 0.301,0.05700001 Z"
           id="path112" />
      </symbol>
      <symbol
         id="font_0_6">
        <path
           d="m 0.03066667,0.12000001 c 0,0.002333 0,0.005167 0,0.0085 0,0.003333 1.6666e-4,0.008 5e-4,0.014 6.6667e-4,0.006333 0.0015,0.0145 0.0025,0.0245 0.0013333,0.0103333 0.003,0.0238333 0.005,0.0405 l 0.0265,0.21199999 h -0.0415 c -0.007,0 -0.01283334,0.0025 -0.0175,0.0075 C 0.0015,0.432333 0,0.44 0.00166667,0.45 l 0.007,0.0605 0.07850001,0.0160001 0.0435,0.12650001 c 0.005667,0.016 0.017,0.024 0.034,0.024 h 0.084 l -0.019,-0.15149999 H 0.3456667 L 0.3326667,0.4195 H 0.21666669 l -0.025,-0.2035 c -0.001667,-0.0136667 -0.003,-0.0245 -0.004,-0.0325 -0.001,-0.007667 -0.001833,-0.0136667 -0.0025,-0.018 C 0.18483337,0.1615 0.1846667,0.158667 0.1846667,0.157 c 0,-0.001333 0,-0.002167 0,-0.0025 0,-0.009667 0.002167,-0.0178333 0.0065,-0.0245 0.004667,-0.006333 0.0118333,-0.0095 0.0215,-0.0095 0.005333,0 0.009667,5.0001e-4 0.013,0.0015 0.003667,0.001333 0.006833,0.002667 0.0095,0.004 0.002667,0.001667 0.005167,0.003 0.0075,0.004 0.002333,0.001333 0.005,0.002 0.008,0.002 0.004667,0 0.008,-0.001167 0.01,-0.0035 0.002333,-0.002 0.004667,-0.005333 0.007,-0.01 l 0.034,-0.0735 C 0.281,0.03 0.25883333,0.01866667 0.23516669,0.011 0.2115,0.00366667 0.18766667,0 0.16366668,0 c -0.02,0 -0.038,0.00266667 -0.054,0.008 -0.01600001,0.00566667 -0.02983334,0.01366667 -0.04150001,0.024 -0.01133333,0.01066667 -0.02033333,0.02333334 -0.027,0.038 -0.0063333,0.01466667 -0.0098333,0.03133334 -0.0105,0.05000001 z"
           id="path115" />
      </symbol>
      <symbol
         id="font_0_7">
        <path
           d="M 0.407,0.09900001 C 0.39033333,0.08066667 0.37433339,0.06516668 0.35900004,0.0525 0.3436667,0.03983333 0.32783336,0.02966667 0.3115,0.022 0.29516668,0.01433333 0.27766667,0.00883333 0.259,0.0055 0.24066668,0.00183333 0.22033334,0 0.19800002,0 0.16766668,0 0.14033334,0.00516667 0.11600001,0.0155 0.09166668,0.02583334 0.07083333,0.0405 0.0535,0.05950001 0.03650001,0.07850001 0.02333333,0.10150001 0.014,0.1285 0.00466667,0.15550001 0,0.18583334 0,0.2195 0,0.2618334 0.00683333,0.302 0.0205,0.34 c 0.014,0.038 0.03333334,0.0713333 0.058,0.1 0.02500001,0.0286667 0.05450002,0.0513333 0.08850001,0.068 0.034,0.0170001 0.0713333,0.0255 0.11199998,0.0255 0.0346667,0 0.0643334,-0.006 0.089,-0.0179999 C 0.393,0.50383338 0.41533337,0.48533333 0.435,0.46 L 0.385,0.4025 C 0.381333,0.398833 0.377167,0.3955 0.3725,0.3925 0.367833,0.389833 0.362667,0.3885 0.357,0.3885 0.350333,0.3885 0.3446667,0.389833 0.34,0.3925 0.335667,0.3955 0.330833,0.3985 0.3255,0.4015 0.320167,0.404833 0.3136667,0.407833 0.306,0.4105 0.298333,0.4135 0.2883333,0.415 0.276,0.415 0.2606667,0.415 0.2456667,0.4105 0.231,0.4015 0.2166667,0.392833 0.2038333,0.3801667 0.1925,0.3635 0.18116667,0.34683333 0.172,0.3263333 0.165,0.302 0.158333,0.2776667 0.155,0.25 0.155,0.219 0.155,0.2016667 0.157,0.1865 0.161,0.1735 0.165,0.1608333 0.1705,0.1501667 0.1775,0.1415 0.1845,0.133167 0.1926667,0.1268333 0.202,0.1225 0.211333,0.118167 0.2213333,0.116 0.232,0.116 c 0.016,0 0.0288334,0.002167 0.0385,0.0065 0.01,0.004667 0.0186667,0.009667 0.026,0.015 C 0.303833,0.142833 0.3106667,0.1476667 0.317,0.152 0.323333,0.156667 0.331,0.159 0.34,0.159 0.345,0.159 0.349833,0.157667 0.3545,0.155 0.359167,0.152667 0.363333,0.149667 0.3670001,0.146 Z"
           id="path118" />
      </symbol>
      <symbol
         id="font_0_8">
        <path
           d="m 0.21000001,0.4505 c 0.0233333,0.026 0.0481667,0.0451667 0.0745,0.0575 0.0263333,0.0123334 0.0535,0.0185001 0.0815,0.0185001 0.0216667,0 0.0413333,-0.004333 0.059,-0.013 0.018,-0.008667 0.033,-0.0213334 0.045,-0.038 0.012,-0.0166667 0.0205,-0.0373333 0.0255,-0.062 0.005,-0.0243333 0.0055,-0.0523333 0.0015,-0.084 L 0.45800004,0 H 0.303 l 0.039,0.32950003 c 0.001667,0.014 0.002167,0.0258333 0.0015,0.0355 -6.6665e-4,0.009667 -0.0025,0.0175 -0.0055,0.0235 -0.003,0.006 -0.007167,0.0101667 -0.0125,0.0125 -0.005333,0.002667 -0.0118333,0.004 -0.0195,0.004 -0.0103333,3e-8 -0.0211667,-0.003167 -0.0325,-0.0095 -0.0113334,-0.006 -0.0223334,-0.0146666 -0.033,-0.026 -0.0103333,-0.0113333 -0.0201667,-0.0251667 -0.0295,-0.0415 -0.009,-0.016 -0.0165,-0.0338333 -0.0225,-0.0535 L 0.155,0 H 0 l 0.09100001,0.74850007 h 0.15500001 z"
           id="path121" />
      </symbol>
      <use
         xlink:href="#font_0_1"
         transform="matrix(192.14276,0,0,-192.14276,98.65419,781.0437)"
         fill="#ffffff"
         id="use124" />
      <use
         xlink:href="#font_0_2"
         transform="matrix(192.14276,0,0,-192.14276,207.98343,782.5809)"
         fill="#ffffff"
         id="use126" />
      <use
         xlink:href="#font_0_2"
         transform="matrix(192.14276,0,0,-192.14276,309.4348,782.5809)"
         fill="#ffffff"
         id="use128" />
      <use
         xlink:href="#font_0_3"
         transform="matrix(192.14276,0,0,-192.14276,410.2137,781.0437)"
         fill="#ffffff"
         id="use130" />
      <use
         xlink:href="#font_0_4"
         transform="matrix(192.14276,0,0,-192.14276,565.1768,781.0437)"
         fill="#ffffff"
         id="use132" />
      <use
         xlink:href="#font_0_5"
         transform="matrix(192.14276,0,0,-192.14276,730.8039,782.5809)"
         fill="#ffffff"
         id="use134" />
      <use
         xlink:href="#font_0_6"
         transform="matrix(192.14276,0,0,-192.14276,836.0661,782.5809)"
         fill="#ffffff"
         id="use136" />
      <use
         xlink:href="#font_0_7"
         transform="matrix(192.14276,0,0,-192.14276,903.9245,782.5809)"
         fill="#ffffff"
         id="use138" />
      <use
         xlink:href="#font_0_8"
         transform="matrix(192.14276,0,0,-192.14276,990.29269,781.0437)"
         fill="#ffffff"
         id="use140" />
    </g>
  </g>
</svg>
